{"title":"Udta Punjab (2016) HQ 1080p Blu-ray x264 ATMOS 7.1 ESub -DDR","uid":15759479,"size":16195496865,"categoryP":"video","categoryS":"hd___movies","magnet":"?xt=urn:btih:ae95b96deabf781abe923c460d2ddb58b0ba52c0&amp;dn=Udta+Punjab+%282016%29+HQ+1080p+Blu-ray+x264+ATMOS+7.1+ESub+-DDR&amp;tr=udp%3A%2F%2Ftracker.leechers-paradise.org%3A6969&amp;tr=udp%3A%2F%2Fzer0day.ch%3A1337&amp;tr=udp%3A%2F%2Fopen.demonii.com%3A1337&amp;tr=udp%3A%2F%2Ftracker.coppersurfer.tk%3A6969&amp;tr=udp%3A%2F%2Fexodus.desync.com%3A6969","seeders":5,"leechers":4,"uploader":"SaM","files":3,"time":1473094482,"description":"** UDTA PUNJAB **\r\n\r\n** 2016**\r\n\r\n** HQ 1080p / Blu-ray Rip / x264\r\n\r\nHindi Dolby ATMOS 7.1 **\r\n\r\n** English Subtitle(s) **\r\n\r\n\r\n\r\n[ SCREENS ]\r\n \nhttp://extraimago.com/image/wQJ4 \nhttp://extraimago.com/image/wQJe \nhttp://extraimago.com/image/wQJZ \nhttp://extraimago.com/image/wQJK \nhttp://extraimago.com/image/wQJJ \nhttp://extraimago.com/image/wQJ0 \nhttp://extraimago.com/image/wQJF \nhttp://extraimago.com/image/wQJD \nhttp://extraimago.com/image/wQJ5 \nhttp://extraimago.com/image/wQJg \nhttp://extraimago.com/image/wQJX \nhttp://extraimago.com/image/wQJP \nhttp://extraimago.com/image/wQJG \nhttp://extraimago.com/image/wQJr \nhttp://extraimago.com/image/wQJp \nhttp://extraimago.com/image/wQJY \nhttp://extraimago.com/image/wQJC \nhttp://extraimago.com/image/wQJB\r\n\r\n[ Info ]\r\n\r\nSource = BD50 @ DDR\r\n\r\nFormat : Matroska\r\nFile size : 14.9 GiB\r\nDuration : 2 h 26 min\r\nOverall bit rate mode : Variable\r\nOverall bit rate : 14.6 Mb/s\r\n\r\n\r\nVideo\r\nFormat : AVC\r\nFormat/Info : Advanced Video Codec\r\nFormat profile :   \r\nFormat settings, CABAC : Yes\r\nFormat settings, ReFrames : 5 frames\r\nCodec ID : V_MPEG4/ISO/AVC\r\nDuration : 2 h 26 min\r\nBit rate : 10.1 Mb/s\r\nWidth : 1 920 pixels\r\nHeight : 800 pixels\r\nDisplay aspect ratio : 2.40:1\r\nFrame rate mode : Constant\r\nFrame rate : 24.000 FPS\r\ncolor space : YUV\r\nChroma subsampling : 4:2:0\r\nBit depth : 8 bits\r\nScan type : Progressive\r\nBits/(Pixel*Frame) : 0.273\r\nStream size : 10.3 GiB (69%)\r\nLanguage : English\r\nDefault : Yes\r\nForced : No\r\ncolor range : Limited\r\ncolor primaries : BT.709\r\nTransfer characteristics : BT.709\r\nMatrix coefficients : BT.709\r\n\r\nAudio #1\r\nID : 2\r\nFormat : Atmos / TrueHD\r\nCodec ID : A_TRUEHD\r\nDuration : 2 h 26 min\r\nBit rate mode : Variable\r\nBit rate : 3 776 kb/s\r\nMaximum bit rate : 7 626 kb/s\r\nChannel(s) : Object Based / 8 channels\r\nChannel positions : Object Based / Front: L C R, Side: L R, Back: L R, LFE\r\nSampling rate : / 48.0 kHz\r\nFrame rate : 1 200.000 FPS (40 spf)\r\nCompression mode : Lossless\r\nStream size : 3.87 GiB (26%)\r\nLanguage : Hindi\r\nDefault : Yes\r\nForced : No\r\n\r\nAudio #2\r\nID : 3\r\nFormat : AC-3\r\nFormat/Info : Audio Coding 3\r\nMode extension : CM (complete main)\r\nFormat settings, Endianness : Big\r\nCodec ID : A_AC3\r\nDuration : 2 h 26 min\r\nBit rate mode : Constant\r\nBit rate : 640 kb/s\r\nChannel(s) : 6 channels\r\nChannel positions : Front: L C R, Side: L R, LFE\r\nSampling rate : 48.0 kHz\r\nFrame rate : 31.250 FPS (1536 spf)\r\nCompression mode : Lossy\r\nDelay relative to video : 2 ms\r\nStream size : 672 MiB (4%)\r\nLanguage : Hindi\r\nDefault : No\r\nForced : No\r\n\r\n\r\n\r\nChapters = YES","torrent":{"xt":"urn:btih:ae95b96deabf781abe923c460d2ddb58b0ba52c0","amp;dn":"Udta+Punjab+%282016%29+HQ+1080p+Blu-ray+x264+ATMOS+7.1+ESub+-DDR","amp;tr":["udp%3A%2F%2Ftracker.leechers-paradise.org%3A6969","udp%3A%2F%2Fzer0day.ch%3A1337","udp%3A%2F%2Fopen.demonii.com%3A1337","udp%3A%2F%2Ftracker.coppersurfer.tk%3A6969","udp%3A%2F%2Fexodus.desync.com%3A6969"],"infoHash":"ae95b96deabf781abe923c460d2ddb58b0ba52c0","infoHashBuffer":{"type":"Buffer","data":[174,149,185,109,234,191,120,26,190,146,60,70,13,45,219,88,176,186,82,192]},"announce":[],"urlList":[]}}